<?xml version="1.0" encoding="utf-8"?>
<!-- Generator: Adobe Illustrator 25.2.3, SVG Export Plug-In . SVG Version: 6.00 Build 0)  -->
<svg version="1.1" id="Layer_1" xmlns="http://www.w3.org/2000/svg" xmlns:xlink="http://www.w3.org/1999/xlink" x="0px" y="0px"
	 viewBox="0 0 128 129" style="enable-background:new 0 0 128 129;" xml:space="preserve">
<style type="text/css">
	.st0{fill:none;}
	.st1{fill:#666666;}
	.st2{fill:#012169;}
</style>
<g>
	<path class="st0" d="M0.9,0.9c42.7,0,85.3,0,128,0c0,42.7,0,85.3,0,128c-42.7,0-85.3,0-128,0C0.9,86.3,0.9,43.6,0.9,0.9z
		 M11.1,63.8c0,11.9,0.1,23.7,0,35.6c0,5,1.7,9.1,5.2,12.5c4.5,4.5,10,7.2,15.9,9.3c8.8,3.1,17.8,4.5,27.1,5
		c11.1,0.5,22-0.4,32.7-3.3c6.9-1.9,13.5-4.5,19.1-9c4.8-3.9,7.4-8.8,7.4-15.2c-0.2-23.5-0.1-47,0-70.5c0-5-1.7-9.1-5.2-12.5
		c-4.7-4.7-10.5-7.6-16.7-9.6C78,0.1,59.3-0.2,40.4,3.9C33,5.6,26,8.1,19.9,12.6c-5.8,4.1-9,9.4-8.8,16.9
		C11.3,40.9,11.1,52.4,11.1,63.8z"/>
	<path class="st2" d="M11.1,63.8c0-11.4,0.2-22.9-0.1-34.3c-0.2-7.5,3.1-12.8,8.8-16.9C26,8.1,33,5.6,40.4,3.9
		C59.3-0.2,78,0.1,96.5,6.1c6.2,2,12,4.9,16.7,9.6c3.4,3.5,5.2,7.5,5.2,12.5c-0.1,23.5-0.1,47,0,70.5c0,6.5-2.5,11.3-7.4,15.2
		c-5.6,4.6-12.2,7.2-19.1,9c-10.7,2.9-21.7,3.8-32.7,3.3c-9.3-0.4-18.3-1.9-27.1-5c-5.9-2.1-11.4-4.8-15.9-9.3
		c-3.4-3.5-5.2-7.5-5.2-12.5C11.2,87.6,11.1,75.7,11.1,63.8z M62.3,6.3c-2.7,0.2-7.9,0.5-13,1.2c-7.8,1.1-15.4,3.1-22.4,6.8
		c-3.4,1.8-6.5,3.9-8.7,7c-2.6,3.6-2.7,7.4,0.1,10.9c1.3,1.7,3,3.3,4.7,4.6c5.4,3.9,11.6,6.1,18.1,7.7c11.5,2.8,23.1,3.4,34.8,2.2
		c8.2-0.8,16.2-2.5,23.7-5.9c4.4-2,8.6-4.3,11.6-8.3c2.9-3.8,2.9-7.6,0-11.4c-0.8-1.1-1.8-2.1-2.8-3c-3.1-2.7-6.8-4.6-10.6-6.1
		C87.2,7.8,76.1,6.4,62.3,6.3z M16.2,37.9c0,4.7,0.1,8.9,0,13.2c-0.1,3,0.9,5.7,3,7.8c1.2,1.3,2.6,2.5,4,3.5
		c5.6,3.9,11.9,6.1,18.5,7.7c10.5,2.5,21.2,3.1,32,2.2c8.8-0.7,17.3-2.4,25.5-5.9c4.3-1.8,8.3-4.1,11.4-7.6c1.9-2.2,2.9-4.7,2.8-7.6
		c-0.1-4,0-7.9,0-11.9c0-0.4-0.1-0.8-0.1-1.1c-2.5,1.7-4.8,3.5-7.4,5c-2.6,1.4-5.3,2.7-8.1,3.7c-9.4,3.5-19.2,4.9-29.2,5.2
		c-11.3,0.4-22.4-0.7-33.2-4C28.5,46.2,21.9,43.2,16.2,37.9z M113.3,63.7c-0.3,0.1-0.5,0.2-0.5,0.2c-5.6,5.2-12.4,8.2-19.6,10.2
		C75.5,78.9,57.8,79.1,40,75c-8.6-2-16.7-5.1-23.4-11.2c0,0-0.2,0-0.4,0c0,1.2,0,2.4,0,3.6c0,2.7,0.2,5.5,0,8.2
		c-0.4,4.9,1.8,8.4,5.5,11.3c5.8,4.6,12.5,6.9,19.6,8.7c11.2,2.7,22.5,3.3,33.9,2.2c7.8-0.7,15.4-2.3,22.7-5.2c4.4-1.8,8.6-4,12-7.5
		c2.3-2.4,3.6-5.1,3.5-8.5c-0.1-3.8,0-7.6,0-11.4C113.3,64.7,113.3,64.2,113.3,63.7z M113.3,89.2c-0.3,0.2-0.4,0.2-0.5,0.3
		c-3.9,3.7-8.6,6.2-13.6,8.1c-8.2,3.2-16.8,4.8-25.6,5.4c-11.7,0.9-23.2,0.2-34.6-2.7c-8.2-2.1-16-5.1-22.4-11c0,0-0.2,0-0.4,0
		c0,3.2,0.1,6.4,0,9.6c-0.3,4.3,1.5,7.5,4.6,10.3c3.3,2.9,7.1,4.9,11.2,6.5c9,3.5,18.4,5.1,28,5.5c12,0.5,23.9-0.7,35.3-4.6
		c5.2-1.8,10.2-4.1,14.2-8.1c2-2,3.7-4.3,3.8-7.2C113.4,97.3,113.3,93.3,113.3,89.2z"/>
	<path class="st0" d="M62.3,6.3C76.1,6.4,87.2,7.8,97.7,12c3.8,1.5,7.5,3.4,10.6,6.1c1,0.9,2,1.9,2.8,3c2.9,3.8,2.9,7.6,0,11.4
		c-3,4-7.2,6.3-11.6,8.3c-7.6,3.4-15.5,5-23.7,5.9c-11.7,1.2-23.3,0.6-34.8-2.2c-6.4-1.6-12.7-3.7-18.1-7.7
		c-1.8-1.3-3.4-2.9-4.7-4.6c-2.8-3.5-2.7-7.3-0.1-10.9c2.3-3.1,5.4-5.3,8.7-7c7-3.7,14.6-5.7,22.4-6.8C54.5,6.8,59.7,6.5,62.3,6.3z"
		/>
	<path class="st0" d="M16.2,37.9c5.7,5.3,12.2,8.3,19.2,10.4c10.8,3.3,21.9,4.4,33.2,4c10-0.3,19.8-1.7,29.2-5.2
		c2.8-1,5.5-2.2,8.1-3.7c2.6-1.4,4.9-3.3,7.4-5c0,0.3,0.1,0.7,0.1,1.1c0,4-0.1,7.9,0,11.9c0.1,2.9-0.9,5.4-2.8,7.6
		c-3.1,3.6-7.1,5.8-11.4,7.6C91,70,82.4,71.7,73.7,72.4c-10.8,0.9-21.4,0.3-32-2.2c-6.6-1.6-12.9-3.7-18.5-7.7c-1.5-1-2.8-2.3-4-3.5
		c-2.1-2.2-3-4.8-3-7.8C16.3,46.8,16.2,42.6,16.2,37.9z"/>
	<path class="st0" d="M113.3,63.7c0,0.6,0,1,0,1.5c0,3.8-0.1,7.6,0,11.4c0.1,3.4-1.2,6.1-3.5,8.5c-3.4,3.5-7.6,5.7-12,7.5
		c-7.3,3-14.9,4.5-22.7,5.2c-11.4,1.1-22.8,0.5-33.9-2.2c-7-1.7-13.8-4.1-19.6-8.7c-3.6-2.9-5.8-6.4-5.5-11.3c0.2-2.7,0-5.5,0-8.2
		c0-1.2,0-2.4,0-3.6c0.2,0,0.3-0.1,0.4,0C23.3,69.9,31.4,73,40,75c17.8,4.1,35.6,3.9,53.2-0.9c7.2-2,14-4.9,19.6-10.2
		C112.9,63.8,113,63.8,113.3,63.7z"/>
	<path class="st0" d="M113.3,89.2c0,4.1,0.1,8.1,0,12c-0.1,2.9-1.7,5.2-3.8,7.2c-4,3.9-9,6.3-14.2,8.1c-11.5,4-23.3,5.2-35.3,4.6
		c-9.6-0.4-19-2-28-5.5c-4-1.6-7.9-3.6-11.2-6.5c-3.1-2.7-4.9-6-4.6-10.3c0.2-3.2,0-6.4,0-9.6c0.2,0,0.3-0.1,0.4,0
		c6.4,5.9,14.2,8.9,22.4,11c11.4,2.9,22.9,3.6,34.6,2.7c8.8-0.7,17.3-2.2,25.6-5.4c5-1.9,9.7-4.4,13.6-8.1
		C112.9,89.4,113,89.4,113.3,89.2z"/>
</g>
</svg>
