<?xml version="1.0" encoding="utf-8"?>
<!-- Generator: Adobe Illustrator 25.2.3, SVG Export Plug-In . SVG Version: 6.00 Build 0)  -->
<svg version="1.1" id="Layer_1" xmlns="http://www.w3.org/2000/svg" xmlns:xlink="http://www.w3.org/1999/xlink" x="0px" y="0px"
	 viewBox="0 0 128 128" style="enable-background:new 0 0 128 128;" xml:space="preserve">
<style type="text/css">
	.st0{fill:none;}
	.st1{fill:#666666;}
	.st2{fill:#012169;}
</style>
<g>
	<path class="st0" d="M0-0.2c42.7,0,85.3,0,128,0c0,42.7,0,85.3,0,128c-42.7,0-85.3,0-128,0C0,85.1,0,42.5,0-0.2z M10.2,62.7
		c0,11.9,0.1,23.7,0,35.6c0,5,1.7,9.1,5.2,12.5c4.5,4.5,10,7.2,15.9,9.3c8.8,3.1,17.8,4.5,27.1,5c11.1,0.5,22-0.4,32.7-3.3
		c6.9-1.9,13.5-4.5,19.1-9c4.8-3.9,7.4-8.8,7.4-15.2c-0.2-23.5-0.1-47,0-70.5c0-5-1.7-9.1-5.2-12.5c-4.7-4.7-10.5-7.6-16.7-9.6
		C77.1-1,58.4-1.3,39.5,2.8C32.1,4.4,25.1,7,18.9,11.4c-5.8,4.1-9,9.4-8.8,16.9C10.4,39.8,10.2,51.3,10.2,62.7z"/>
	<path class="st1" d="M10.2,62.7c0-11.4,0.2-22.9-0.1-34.3c-0.2-7.5,3.1-12.8,8.8-16.9c6.2-4.4,13.2-7,20.5-8.6
		C58.4-1.3,77.1-1,95.6,4.9c6.2,2,12,4.9,16.7,9.6c3.4,3.5,5.2,7.5,5.2,12.5c-0.1,23.5-0.1,47,0,70.5c0,6.5-2.5,11.3-7.4,15.2
		c-5.6,4.6-12.2,7.2-19.1,9c-10.7,2.9-21.7,3.8-32.7,3.3c-9.3-0.4-18.3-1.9-27.1-5c-5.9-2.1-11.4-4.8-15.9-9.3
		c-3.4-3.5-5.2-7.5-5.2-12.5C10.3,86.4,10.2,74.6,10.2,62.7z M61.4,5.1c-2.7,0.2-7.9,0.5-13,1.2C40.6,7.4,33,9.4,26,13.1
		c-3.4,1.8-6.5,3.9-8.7,7c-2.6,3.6-2.7,7.4,0.1,10.9c1.3,1.7,3,3.3,4.7,4.6c5.4,3.9,11.6,6.1,18.1,7.7c11.5,2.8,23.1,3.4,34.8,2.2
		c8.2-0.8,16.2-2.5,23.7-5.9c4.4-2,8.6-4.3,11.6-8.3c2.9-3.8,2.9-7.6,0-11.4c-0.8-1.1-1.8-2.1-2.8-3c-3.1-2.7-6.8-4.6-10.6-6.1
		C86.3,6.7,75.2,5.3,61.4,5.1z M15.3,36.8c0,4.7,0.1,8.9,0,13.2c-0.1,3,0.9,5.7,3,7.8c1.2,1.3,2.6,2.5,4,3.5
		c5.6,3.9,11.9,6.1,18.5,7.7c10.5,2.5,21.2,3.1,32,2.2c8.8-0.7,17.3-2.4,25.5-5.9c4.3-1.8,8.3-4.1,11.4-7.6c1.9-2.2,2.9-4.7,2.8-7.6
		c-0.1-4,0-7.9,0-11.9c0-0.4-0.1-0.8-0.1-1.1c-2.5,1.7-4.8,3.5-7.4,5c-2.6,1.4-5.3,2.7-8.1,3.7c-9.4,3.5-19.2,4.9-29.2,5.2
		c-11.3,0.4-22.4-0.7-33.2-4C27.5,45,21,42.1,15.3,36.8z M112.4,62.6c-0.3,0.1-0.5,0.2-0.5,0.2C106.3,68,99.5,71,92.3,72.9
		c-17.6,4.9-35.4,5.1-53.2,0.9c-8.6-2-16.7-5.1-23.4-11.2c0,0-0.2,0-0.4,0c0,1.2,0,2.4,0,3.6c0,2.7,0.2,5.5,0,8.2
		c-0.4,4.9,1.8,8.4,5.5,11.3c5.8,4.6,12.5,6.9,19.6,8.7c11.2,2.7,22.5,3.3,33.9,2.2c7.8-0.7,15.4-2.3,22.7-5.2c4.4-1.8,8.6-4,12-7.5
		c2.3-2.4,3.6-5.1,3.5-8.5c-0.1-3.8,0-7.6,0-11.4C112.4,63.6,112.4,63.1,112.4,62.6z M112.4,88.1c-0.3,0.2-0.4,0.2-0.5,0.3
		c-3.9,3.7-8.6,6.2-13.6,8.1c-8.2,3.2-16.8,4.8-25.6,5.4c-11.7,0.9-23.2,0.2-34.6-2.7c-8.2-2.1-16-5.1-22.4-11c0,0-0.2,0-0.4,0
		c0,3.2,0.1,6.4,0,9.6c-0.3,4.3,1.5,7.5,4.6,10.3c3.3,2.9,7.1,4.9,11.2,6.5c9,3.5,18.4,5.1,28,5.5c12,0.5,23.9-0.7,35.3-4.6
		c5.2-1.8,10.2-4.1,14.2-8.1c2-2,3.7-4.3,3.8-7.2C112.5,96.2,112.4,92.2,112.4,88.1z"/>
	<path class="st0" d="M61.4,5.1c13.8,0.2,24.8,1.6,35.4,5.7c3.8,1.5,7.5,3.4,10.6,6.1c1,0.9,2,1.9,2.8,3c2.9,3.8,2.9,7.6,0,11.4
		c-3,4-7.2,6.3-11.6,8.3c-7.6,3.4-15.5,5-23.7,5.9c-11.7,1.2-23.3,0.6-34.8-2.2c-6.4-1.6-12.7-3.7-18.1-7.7
		c-1.8-1.3-3.4-2.9-4.7-4.6c-2.8-3.5-2.7-7.3-0.1-10.9c2.3-3.1,5.4-5.3,8.7-7c7-3.7,14.6-5.7,22.4-6.8C53.6,5.7,58.7,5.4,61.4,5.1z"
		/>
	<path class="st0" d="M15.3,36.8C21,42.1,27.5,45,34.5,47.1c10.8,3.3,21.9,4.4,33.2,4c10-0.3,19.8-1.7,29.2-5.2
		c2.8-1,5.5-2.2,8.1-3.7c2.6-1.4,4.9-3.3,7.4-5c0,0.3,0.1,0.7,0.1,1.1c0,4-0.1,7.9,0,11.9c0.1,2.9-0.9,5.4-2.8,7.6
		c-3.1,3.6-7.1,5.8-11.4,7.6c-8.1,3.5-16.7,5.2-25.5,5.9c-10.8,0.9-21.4,0.3-32-2.2c-6.6-1.6-12.9-3.7-18.5-7.7
		c-1.5-1-2.8-2.3-4-3.5c-2.1-2.2-3-4.8-3-7.8C15.4,45.7,15.3,41.4,15.3,36.8z"/>
	<path class="st0" d="M112.4,62.6c0,0.6,0,1,0,1.5c0,3.8-0.1,7.6,0,11.4c0.1,3.4-1.2,6.1-3.5,8.5c-3.4,3.5-7.6,5.7-12,7.5
		c-7.3,3-14.9,4.5-22.7,5.2c-11.4,1.1-22.8,0.5-33.9-2.2c-7-1.7-13.8-4.1-19.6-8.7c-3.6-2.9-5.8-6.4-5.5-11.3c0.2-2.7,0-5.5,0-8.2
		c0-1.2,0-2.4,0-3.6c0.2,0,0.3-0.1,0.4,0c6.7,6.1,14.8,9.2,23.4,11.2c17.8,4.1,35.6,3.9,53.2-0.9c7.2-2,14-4.9,19.6-10.2
		C112,62.7,112.1,62.7,112.4,62.6z"/>
	<path class="st0" d="M112.4,88.1c0,4.1,0.1,8.1,0,12c-0.1,2.9-1.7,5.2-3.8,7.2c-4,3.9-9,6.3-14.2,8.1c-11.5,4-23.3,5.2-35.3,4.6
		c-9.6-0.4-19-2-28-5.5c-4-1.6-7.9-3.6-11.2-6.5c-3.1-2.7-4.9-6-4.6-10.3c0.2-3.2,0-6.4,0-9.6c0.2,0,0.3-0.1,0.4,0
		c6.4,5.9,14.2,8.9,22.4,11c11.4,2.9,22.9,3.6,34.6,2.7c8.8-0.7,17.3-2.2,25.6-5.4c5-1.9,9.7-4.4,13.6-8.1
		C111.9,88.3,112.1,88.2,112.4,88.1z"/>
</g>
</svg>
