<?xml version="1.0" encoding="utf-8"?>
<!-- Generator: Adobe Illustrator 25.2.3, SVG Export Plug-In . SVG Version: 6.00 Build 0)  -->
<svg version="1.1" id="Layer_1" xmlns="http://www.w3.org/2000/svg" xmlns:xlink="http://www.w3.org/1999/xlink" x="0px" y="0px"
	 viewBox="0 0 128 128" style="enable-background:new 0 0 128 128;" xml:space="preserve">
<style type="text/css">
	.st0{fill:none;}
	.st1{fill:#666666;}
	.st2{fill:#012169;}
</style>
<g>
	<path class="st0" d="M0.8,90.1c0-3.6,0-7.1,0-10.7c0.3,0.9,0.5,1.9,0.8,2.8c1.1,2.9,3.1,5.1,5.4,7c4.1,3.4,8.9,5.6,13.9,7.3
		c9,3.1,18.3,4.4,27.8,4.7c1,0,2,0,3,0c-0.1-0.2-0.1-0.3-0.1-0.4c-2.6-5.4-3.9-11-3.9-16.9c0-0.6-0.2-0.6-0.7-0.7
		c-4-0.4-8.1-0.6-12.1-1.2c-6.3-0.9-12.5-2.5-18.4-5c-3.7-1.6-7.1-3.5-10.1-6.2c-2.3-2-4.1-4.3-5-7.3c-0.1-0.2-0.3-0.3-0.5-0.5
		c0-3.6,0-7.2,0-10.8c0,0.1,0.1,0.2,0.1,0.3c0.5,3.5,2.5,6.2,5,8.6c3.5,3.3,7.7,5.5,12.2,7.2c9.7,3.8,19.9,5.3,30.2,5.7
		c0.5,0,0.6-0.2,0.7-0.6c1.8-6.4,5-12,9.6-16.9c0.1-0.1,0.2-0.3,0.5-0.6c-0.9,0-1.6,0.1-2.4,0.1c-10.6,0.4-21-0.5-31.3-3.2
		c-6.1-1.6-11.9-3.9-17-7.6c-3.3-2.4-6-5.1-7.2-9.1c0-0.1-0.3-0.2-0.4-0.3c0-3.6,0-7.2,0-10.8c0,0.1,0.1,0.2,0.1,0.3
		c0.4,2.5,1.5,4.7,3.2,6.6c2.8,3.4,6.5,5.7,10.4,7.5c7.2,3.5,14.9,5.3,22.7,6.4c11.9,1.6,23.8,1.3,35.6-1c6.9-1.4,13.6-3.5,19.7-7
		c3-1.7,5.8-3.8,7.9-6.6c2.9-3.9,3.7-8.1,1.4-12.6c-1.2-2.5-3.1-4.4-5.3-6.1C92.2,8.9,87.3,6.7,82.1,5c-7.4-2.4-14.9-3.7-22.6-4.2
		c-1.2-0.1-2.4-0.2-3.5-0.3c24.3,0,48.5,0,72.8,0c0,39.5,0,79.1,0,118.6c-0.3-0.3-0.5-0.7-0.8-1c-4.4-4.4-8.7-8.7-13.1-13.1
		c-0.2-0.2-0.4-0.4-0.6-0.6c0.2-0.3,0.3-0.4,0.5-0.6c5.8-8.2,7.9-17.2,5.9-27.1C117,58.3,98.4,46.2,79.9,50.2
		c-13.7,3-24.2,13.6-26.6,27.4c-2.2,13.1,1.9,24.2,12.1,32.7c7.8,6.5,16.9,8.7,26.9,7.3c4-0.6,7.8-1.9,11.4-3.9
		c0.4-0.2,0.7-0.2,1,0.1c0.5,0.5,1,1,1.5,1.5c4.2,4.2,8.4,8.4,12.6,12.6c0.7,0.7,1.4,0.9,2.3,0.4c0.4-0.2,0.7-0.5,1-0.8
		c1.7-1.7,3.4-3.4,5.1-5.1c0.6-0.6,1.1-1.3,1.7-2c0,2.7,0,5.5,0,8.2c-42.7,0-85.3,0-128,0c0-7.3,0-14.6,0-21.9c0,0,0.1,0.1,0.1,0.1
		c0.5,3.3,2.3,6,4.6,8.3c3.1,3,6.8,5.1,10.7,6.8c8.9,3.9,18.4,5.6,28,6.3c6.1,0.4,12.3,0.3,18.4-0.2c6.2-0.6,12.4-1.7,18.4-3.6
		c1.2-0.4,2.4-0.8,3.6-1.2c-0.1-0.1-0.2-0.1-0.2-0.2c-0.1,0-0.2,0-0.4,0c-10-0.8-18.5-4.9-25.6-12.1c-0.2-0.2-0.7-0.4-1-0.4
		c-1.6,0-3.2,0.1-4.8,0.1c-10.5,0.1-20.9-1.2-30.9-4.4c-4.9-1.6-9.6-3.7-13.8-6.8c-3.1-2.3-5.8-5.1-6.9-9
		C1.1,90.3,0.9,90.2,0.8,90.1z M95.6,45.1c2.6,0.9,5,1.7,7.5,2.5c0-4,0-7.9,0-11.9c-0.1,0-0.1-0.1-0.2-0.1
		C101.7,39.8,98.9,42.6,95.6,45.1z"/>
	<path class="st2" d="M55.9,0.6c1.2,0.1,2.4,0.2,3.5,0.3C67.2,1.4,74.8,2.6,82.1,5c5.2,1.7,10.1,3.9,14.4,7.3c2.1,1.7,4,3.6,5.3,6.1
		c2.3,4.5,1.5,8.7-1.4,12.6c-2.1,2.8-4.9,4.9-7.9,6.6c-6.1,3.5-12.8,5.6-19.7,7c-11.8,2.3-23.7,2.6-35.6,1c-7.9-1-15.5-2.9-22.7-6.4
		c-3.9-1.9-7.5-4.2-10.4-7.5c-1.6-1.9-2.8-4.1-3.2-6.6c0-0.1-0.1-0.2-0.1-0.3c0-0.9,0-1.7,0-2.6c0-0.1,0.1-0.2,0.1-0.3
		c0.3-1.8,1-3.5,2-5c1.6-2.4,3.8-4.3,6.1-5.9c4.5-3,9.4-5.1,14.6-6.6c6.9-2.1,13.9-3.2,21.1-3.6c1.1-0.1,2.2-0.2,3.2-0.2
		C50.6,0.6,53.3,0.6,55.9,0.6z"/>
	<path class="st2" d="M128.8,120.4c-0.6,0.7-1.1,1.4-1.7,2c-1.7,1.7-3.4,3.4-5.1,5.1c-0.3,0.3-0.6,0.6-1,0.8
		c-0.9,0.5-1.6,0.3-2.3-0.4c-4.2-4.2-8.4-8.4-12.6-12.6c-0.5-0.5-1-1-1.5-1.5c-0.3-0.3-0.6-0.4-1-0.1c-3.5,2-7.3,3.3-11.4,3.9
		c-10,1.4-19.1-0.8-26.9-7.3c-10.2-8.5-14.4-19.6-12.1-32.7c2.3-13.8,12.9-24.4,26.6-27.4c18.5-4,37.1,8.1,40.7,26.7
		c1.9,9.8-0.1,18.9-5.9,27.1c-0.1,0.2-0.3,0.4-0.5,0.6c0.2,0.2,0.4,0.4,0.6,0.6c4.4,4.4,8.7,8.7,13.1,13.1c0.3,0.3,0.5,0.6,0.8,1
		C128.8,119.6,128.8,120,128.8,120.4z M113.3,83.8c0.1-14.4-11.7-26.2-26.2-26.3c-14.5-0.1-26.3,11.6-26.4,26.2
		C60.6,98.1,72.4,109.9,87,110C101.5,110.1,113.3,98.3,113.3,83.8z"/>
	<path class="st2" d="M0.8,90.1c0.1,0.1,0.4,0.2,0.4,0.3c1.1,3.9,3.8,6.6,6.9,9c4.2,3.1,8.9,5.2,13.8,6.8c10,3.2,20.4,4.5,30.9,4.4
		c1.6,0,3.2-0.1,4.8-0.1c0.3,0,0.8,0.2,1,0.4c7,7.2,15.5,11.3,25.6,12.1c0.1,0,0.2,0,0.4,0c0,0,0.1,0.1,0.2,0.2
		c-1.2,0.4-2.4,0.9-3.6,1.2c-6,1.8-12.1,3-18.4,3.6c-6.1,0.6-12.3,0.7-18.4,0.2c-9.7-0.7-19.1-2.4-28-6.3c-3.9-1.7-7.6-3.8-10.7-6.8
		c-2.4-2.3-4.1-4.9-4.6-8.3c0,0-0.1-0.1-0.1-0.1C0.8,101.2,0.8,95.7,0.8,90.1z"/>
	<path class="st2" d="M0.8,35.7c0.1,0.1,0.4,0.2,0.4,0.3c1.2,4,4,6.8,7.2,9.1c5.1,3.7,11,5.9,17,7.6c10.2,2.8,20.7,3.6,31.3,3.2
		c0.7,0,1.5-0.1,2.4-0.1c-0.2,0.3-0.3,0.4-0.5,0.6C54,61.3,50.8,66.9,49,73.3c-0.1,0.4-0.2,0.7-0.7,0.6c-10.4-0.4-20.5-1.9-30.2-5.7
		c-4.4-1.7-8.6-3.9-12.2-7.2c-2.5-2.3-4.5-5.1-5-8.6c0-0.1-0.1-0.2-0.1-0.3C0.8,46.7,0.8,41.2,0.8,35.7z"/>
	<path class="st2" d="M0.8,63c0.2,0.2,0.4,0.3,0.5,0.5c0.9,3,2.8,5.3,5,7.3c3,2.7,6.5,4.6,10.1,6.2c5.9,2.5,12.1,4.1,18.4,5
		c4,0.6,8,0.8,12.1,1.2c0.5,0,0.7,0.1,0.7,0.7c0,5.9,1.3,11.6,3.9,16.9c0,0.1,0.1,0.2,0.1,0.4c-1,0-2,0-3,0
		c-9.5-0.3-18.8-1.6-27.8-4.7c-5-1.7-9.8-3.9-13.9-7.3c-2.3-1.9-4.3-4.1-5.4-7c-0.3-0.9-0.5-1.9-0.8-2.8C0.8,74,0.8,68.5,0.8,63z"/>
	<path class="st0" d="M48,0.6c-1.1,0.1-2.2,0.2-3.2,0.2c-7.2,0.4-14.2,1.5-21.1,3.6C18.5,6,13.5,8,9.1,11.1
		c-2.4,1.6-4.5,3.5-6.1,5.9c-1,1.5-1.7,3.2-2,5c0,0.1-0.1,0.2-0.1,0.3c0-7.2,0-14.5,0-21.7C16.5,0.6,32.2,0.6,48,0.6z"/>
	<path class="st2" d="M95.6,45.1c3.3-2.5,6.1-5.4,7.3-9.5c0.1,0,0.1,0.1,0.2,0.1c0,4,0,7.9,0,11.9C100.6,46.8,98.2,46,95.6,45.1z"/>
	<path class="st0" d="M113.3,83.8c-0.1,14.5-11.9,26.3-26.4,26.2c-14.6-0.1-26.3-11.9-26.2-26.4c0.1-14.5,11.9-26.2,26.4-26.2
		C101.6,57.5,113.4,69.3,113.3,83.8z"/>
</g>
</svg>
