<?xml version="1.0" encoding="utf-8"?>
<!-- Generator: Adobe Illustrator 25.2.3, SVG Export Plug-In . SVG Version: 6.00 Build 0)  -->
<svg version="1.1" id="Layer_1" xmlns="http://www.w3.org/2000/svg" xmlns:xlink="http://www.w3.org/1999/xlink" x="0px" y="0px"
	 viewBox="0 0 128 128" style="enable-background:new 0 0 128 128;" xml:space="preserve">
<style type="text/css">
	.st0{fill:none;}
	.st1{fill:#666666;}
	.st2{fill:#012169;}
</style>
<g>
	<path class="st0" d="M128.1,128.6c-42.7,0-85.3,0-128,0c0-42.7,0-85.3,0-128c42.7,0,85.3,0,128,0C128.1,43.3,128.1,86,128.1,128.6z
		 M124.1,64.4c0.1-32.7-26.7-59.7-59.3-59.8C31.2,4.5,4.2,31,4.1,64.1C4,96.7,30.8,123.5,63.7,123.7C96.9,123.8,124,97.2,124.1,64.4
		z"/>
	<path class="st2" d="M124.1,64.4c-0.1,32.8-27.2,59.4-60.4,59.2C30.8,123.5,4,96.7,4.1,64.1C4.2,31,31.2,4.5,64.8,4.6
		C97.4,4.7,124.2,31.7,124.1,64.4z M49.8,25.8c-6-0.6-11.8-0.9-17.5-1.9c-5.6-1-9.9,1-10.4,5.7c-0.2,2.1-0.5,4.2-0.9,7
		c0.5,0.4,1.9,1.5,3.4,2.7c-1.4,2-2.7,3.8-3.9,5.5c3.7-1.9,8.9-1.1,10.4-6.3c0.1-0.5,4-0.9,4.6-0.2c3.4,4.3,8.2,8.6,9.1,13.6
		c1.5,8.5,6.3,14,12.6,18.4c4.4,3.1,9.8,4.6,13.2,6.1c0.8,5,0.3,9.4,2.2,11.6c4.2,4.6,3.5,9.1,2.3,14.2c-0.8,3.5-1.4,7.1-1.7,10.7
		c-0.2,2.7,0.4,5.4,4.5,4.9c-1.6-11.1,8.2-15.7,13.5-22.4c2.5-3.2,2.9-6.7,4.9-9.7c-1.9-1.3-3.9-2.5-5.7-3.9
		c-0.9-0.7-1.5-1.7-2.5-2.3c-4.5-3.1-8.6-7.6-15.1-4.1c-0.8,0.5-3.2-0.2-3.7-1c-1.5-2.7-2.5-5.3-6.4-4.5c-0.4,0.1-1.7-1.4-1.7-2.1
		c0-1.2,0.7-3.2,1.3-3.3c2.5-0.4,5.2-0.2,7.6-0.2c0.6-1.2,1.1-3,2.2-4.3C76,56,80.2,52,83.9,47.8c0.6-0.6,0.3-2.4-0.1-3.4
		c-1.8-4.8-7.2-5.1-10.6-7.9c-0.1-0.1-0.6,0.2-0.4,0.1c-0.6,3.5-1.1,6.7-1.6,10c0.5-1.1,1-2.1,1.5-3.2c-3.3-2-6.6-4.1-10.3-6.3
		c2.1-3.6,9.5-4.5,8.2-11.7c-5.6,0.9-11.1,1.9-16.6,2.8c-0.1-0.5-0.1-1.1-0.2-1.6c1.5-0.5,2.9-0.9,3.8-1.2c-0.5-2.8-0.9-5.2-1.4-8.1
		c-4.4,5.6-6.5-3.2-10.5-1.3C40.8,21.8,50,20.7,49.8,25.8z M92.1,38.7c-0.4-8.7,7.2-9.5,12-14.5c-6.7-4.3-13.3-8.5-20.9-13.3
		c0.2,2.6,0.2,3.6,0.4,4.5c1.1,4.1,3.8,8.6,2.9,12.2C85,33.1,88.2,34.9,92.1,38.7z M80.5,30.7c0.3-0.4,0.5-0.7,0.8-1.1
		c-2.8-3.8-5.3-8-8.5-11.4c-1-1.1-4-0.6-6-0.3c-0.6,0.1-1.6,1.9-1.4,2.7c0.4,1.2,1.6,3.2,2.5,3.1c4.1-0.2,6.1,2.6,8.7,4.8
		C77.6,29.5,79.1,30,80.5,30.7z M61.3,10.3c2.1,4.1,4.6,7,9.5,3.5c-1.7-0.3-3.4-0.6-5.2-0.9c0-0.4,0-0.7,0-1.1
		c2.1-0.2,4.1-0.5,6.6-0.7C68.5,5.7,64.8,12,61.3,10.3z M56.1,12.4c-2.7-0.6-5.5-1.3-8.2-1.9C49.5,15,51.9,16.8,56.1,12.4z"/>
	<path class="st0" d="M49.8,25.8c0.2-5-8.9-4-4.1-9.8c4-1.9,6.1,6.9,10.5,1.3c0.5,2.8,0.9,5.2,1.4,8.1c-0.9,0.3-2.4,0.7-3.8,1.2
		c0.1,0.5,0.1,1.1,0.2,1.6c5.5-0.9,11-1.9,16.6-2.8c1.4,7.2-6,8.1-8.2,11.7c3.6,2.2,6.9,4.3,10.3,6.3c-0.5,1.1-1,2.1-1.5,3.2
		c0.5-3.2,1-6.5,1.6-10c-0.2,0.1,0.3-0.2,0.4-0.1c3.4,2.8,8.7,3.1,10.6,7.9c0.4,1,0.7,2.8,0.1,3.4C80.2,52,76,56,72.3,60.2
		c-1.2,1.3-1.7,3.1-2.2,4.3c-2.4,0-5-0.2-7.6,0.2c-0.6,0.1-1.3,2.1-1.3,3.3c0,0.7,1.2,2.2,1.7,2.1c3.9-0.8,5,1.8,6.4,4.5
		c0.4,0.8,2.8,1.5,3.7,1c6.5-3.5,10.6,1,15.1,4.1c0.9,0.6,1.6,1.6,2.5,2.3c1.9,1.4,3.8,2.6,5.7,3.9c-2,3-2.4,6.5-4.9,9.7
		c-5.3,6.7-15.1,11.3-13.5,22.4c-4,0.5-4.6-2.2-4.5-4.9c0.2-3.6,0.9-7.2,1.7-10.7c1.2-5.1,1.9-9.6-2.3-14.2c-2-2.2-1.4-6.6-2.2-11.6
		c-3.4-1.5-8.8-3.1-13.2-6.1c-6.3-4.4-11.1-9.9-12.6-18.4c-0.9-4.9-5.7-9.3-9.1-13.6c-0.6-0.8-4.5-0.3-4.6,0.2
		c-1.5,5.2-6.7,4.4-10.4,6.3c1.3-1.8,2.5-3.5,3.9-5.5c-1.6-1.2-2.9-2.3-3.4-2.7c0.4-2.8,0.7-4.9,0.9-7c0.4-4.7,4.7-6.7,10.4-5.7
		C38,24.9,43.8,25.2,49.8,25.8z"/>
	<path class="st0" d="M92.1,38.7c-3.9-3.8-7.1-5.6-5.6-11.2c0.9-3.6-1.9-8.1-2.9-12.2c-0.2-0.9-0.2-1.9-0.4-4.5
		c7.6,4.9,14.1,9,20.9,13.3C99.3,29.2,91.7,29.9,92.1,38.7z"/>
	<path class="st0" d="M80.5,30.7c-1.3-0.7-2.9-1.2-4-2.2c-2.6-2.2-4.6-5.1-8.7-4.8c-0.8,0-2.1-1.9-2.5-3.1c-0.2-0.7,0.8-2.6,1.4-2.7
		c2-0.3,5-0.7,6,0.3c3.2,3.4,5.7,7.5,8.5,11.4C81,30,80.8,30.3,80.5,30.7z"/>
	<path class="st0" d="M61.3,10.3c3.5,1.7,7.3-4.6,11,0.7c-2.4,0.3-4.5,0.5-6.6,0.7c0,0.4,0,0.7,0,1.1c1.7,0.3,3.4,0.6,5.2,0.9
		C65.9,17.3,63.4,14.4,61.3,10.3z"/>
	<path class="st0" d="M56.1,12.4c-4.2,4.4-6.5,2.5-8.2-1.9C50.6,11.2,53.3,11.8,56.1,12.4z"/>
</g>
</svg>
