<?xml version="1.0" encoding="utf-8"?>
<!-- Generator: Adobe Illustrator 25.2.3, SVG Export Plug-In . SVG Version: 6.00 Build 0)  -->
<svg version="1.1" id="Layer_1" xmlns="http://www.w3.org/2000/svg" xmlns:xlink="http://www.w3.org/1999/xlink" x="0px" y="0px"
	 viewBox="0 0 128 128" style="enable-background:new 0 0 128 128;" xml:space="preserve">
<style type="text/css">
	.st0{fill:none;}
	.st1{fill:#666666;}
	.st2{fill:#012169;}
</style>
<g>
	<path class="st0" d="M51.7,0c25.7,0,51.3,0,77,0c0,38.3,0,76.7,0,115c-8.6-8.6-17.1-17.3-25.9-25.7c-3.4-3.2-5.8-8.7-12.3-6.2
		c-0.3,0.1-0.9-0.4-1.2-0.7c-3.4-2.8-6.9-5.7-10.3-8.5c2.1-2.5,2.9-3.6,3.6-4.7c13-20,8.5-46.8-11-60.4C65.7,4.7,58.3,2.9,51.7,0z"
		/>
	<path class="st0" d="M114.7,128c-37.9,0-75.8,0-114,0c0-25.7,0-51.3,0-77c0.5,1.6,0.9,3.1,1.4,4.7C7.4,76,25.3,89.5,46.2,89.2
		c10-0.1,18.7-3.7,27.1-9.6c3,3.2,6,6.1,8.8,9.2c0.6,0.6,1.2,1.9,1,2.5c-1.6,3.8,0.7,5.9,3,8.2C95.7,108.9,105.2,118.5,114.7,128z"
		/>
	<path class="st1" d="M113.4,126.3c-9.4-9.4-18.7-18.8-28.1-28.2c-2.2-2.2-4.6-4.3-3-8.1c0.2-0.6-0.4-1.8-1-2.4
		c-2.8-3-5.6-5.9-8.6-9c-8.3,5.8-16.9,9.3-26.7,9.5C25.3,88.3,8.6,76.6,2.5,57.2C2,55.6,1.2,53,1,51.4c-0.6-5.2-0.6-10.1,0-14.8
		c2.2-11.2,6.8-19.9,16.1-26.2C23.6,6,30.5,2.9,38.5,1.6c4.8-0.5,8.4-0.5,12.8,0c7.6,1.2,13.8,3.2,19.6,7.2
		c19.2,13.5,23.7,39.9,10.9,59.6c-0.7,1.1-1.5,2.2-3.5,4.6c3.4,2.8,6.8,5.6,10.2,8.4c0.4,0.3,0.9,0.8,1.2,0.7
		c6.3-2.5,8.8,2.9,12.1,6.1c8.6,8.3,17,16.9,25.5,25.4c0,0.7,0,1.3,0,2c-3.6,3.6-7.2,6.2-10.8,9.8
		C115.4,125.3,114.4,126.3,113.4,126.3z M79.8,43.9c-0.1-19-15.9-34.7-35-34.6c-19,0.1-34.8,16-34.6,35c0.2,19.1,16,34.8,35,34.6
		C64.3,78.7,79.9,62.9,79.8,43.9z"/>
	<path class="st0" d="M38.7,0C31.4,3.4,23.6,6,17,10.4C7.5,16.8,3.4,27.2,0.7,38c0-12.6,0-25.2,0-38C13.3,0,26,0,38.7,0z"/>
	<path class="st0" d="M117.7,128c3.7-3.7,7.3-7.3,11-11c0,3.7,0,7.3,0,11C125,128,121.3,128,117.7,128z"/>
	<path class="st0" d="M80.6,44.4c0.1,19.3-15.7,35.3-35.1,35.5C26.2,80.1,10.2,64.2,10,44.8C9.8,25.5,25.8,9.4,45.1,9.3
		C64.4,9.3,80.5,25.2,80.6,44.4z"/>
</g>
<path class="st1" d="M126.9,115.7l-11,10.7c-0.8,0.7-2,0.7-2.7-0.1l-2.8-3c-0.7-0.7-0.7-1.9,0-2.6l10.3-10.8
	c0.7-0.7,1.9-0.8,2.7-0.1l3.5,3.1C127.7,113.7,127.7,115,126.9,115.7z"/>
</svg>
