<?xml version="1.0" encoding="utf-8"?>
<!-- Generator: Adobe Illustrator 25.2.3, SVG Export Plug-In . SVG Version: 6.00 Build 0)  -->
<svg version="1.1" id="Layer_1" xmlns="http://www.w3.org/2000/svg" xmlns:xlink="http://www.w3.org/1999/xlink" x="0px" y="0px"
	 viewBox="0 0 128 128" style="enable-background:new 0 0 128 128;" xml:space="preserve">
<style type="text/css">
	.st0{fill:none;}
	.st1{fill:#666666;}
	.st2{fill:#012169;}
</style>
<g>
	<path class="st1" d="M128,18.9c0,33.1,0,66.1,0,99.2c-2,3.4-4.6,4.4-8.7,3.3c-10.8-3.1-21.7-5.7-32.6-8.3c-1.8-0.4-3.9-0.5-5.7,0
		c-11.1,2.7-22.1,5.6-33.1,8.4c-1.8,0.4-3.9,0.6-5.7,0.2c-11.4-2.8-22.7-6-34.1-8.7c-5.2-1.2-6.9-3.8-6.9-9
		c0.2-30.1,0-60.2,0.2-90.2C1.3,10.7,3,7.9,4,5c1.7,0,3.3,0,5,0c8.5,2.3,17.1,4.7,25.6,7c3.5,0.9,7.3,2.8,10.6,2.1
		C57,11.6,68.6,8.1,80.4,5c2,0,4,0,6,0c11.4,3,22.8,5.9,34.1,9.2C123.2,15,125.5,17.3,128,18.9z M122.7,116.8c0-2.7,0-4.5,0-6.3
		c0-17.9,0-35.9,0-53.8c0-10.2-0.2-20.5,0.1-30.7c0.2-4.5-0.9-6.7-5.7-7.6c-8.2-1.6-16.3-4.2-24.5-6.2c-2.6-0.7-5.3-1.1-8.3-1.7
		c0,8-0.1,15.4,0.1,22.9c0.1,2.4,1,4.8,1.8,7.9c-0.2,0.4-1.7,1.8-1.7,3.2c-0.1,20.8-0.1,41.6-0.1,62.7
		C97,110.3,109.4,113.4,122.7,116.8z M78.6,11.2c-9.9,2.5-19.7,5.3-29.7,7.5c-3.4,0.8-4.4,2.1-4.4,5.6c0.2,20.8,0.1,41.6,0.1,62.4
		c0,9.9,0,19.8,0,30.1c11.8-3,23.1-5.9,34.2-8.7c0.2-0.7,0.3-1.1,0.3-1.4c0-19.6,0.1-39.3,0-58.9c0-2.4-1.1-4.8-1.9-7.8
		C79.5,37.7,80.7,22.8,78.6,11.2z M6.3,81.5c0,7.8-0.1,15.4,0.1,23c0,1,1,2.7,1.8,2.9c10.3,2.8,20.6,5.4,31.3,8.2
		c0-12.9,0-25,0-37.1c-1.3-0.2-2.5-0.4-3.7-0.7c1.4-2.5,3.7-4.6,3.7-6.7c0.3-16.5,0.2-33,0.1-49.5c0-1.1-1-3-1.9-3.3
		c-10.1-2.8-20.3-5.3-31.3-8.1c0,2.5,0,4.3,0,6c0,16.3,0,32.7,0,49c0,5.5-1.1,11.4,4.6,15.2c0.2,0.1-0.1,0.9-0.2,1.7
		C9.3,81.9,7.9,81.7,6.3,81.5z"/>
	<path class="st0" d="M4,5C3,7.9,1.3,10.7,1.3,13.6c-0.2,30.1,0,60.1-0.2,90.2c0,5.1,1.7,7.8,6.9,9c11.4,2.6,22.7,5.9,34.1,8.7
		c1.8,0.4,3.9,0.3,5.7-0.2c11.1-2.7,22.1-5.7,33.1-8.4c1.8-0.4,3.9-0.4,5.7,0c10.9,2.6,21.8,5.3,32.6,8.3c4.1,1.2,6.7,0.1,8.7-3.3
		c0,1.7,0,3.3,0,5c-42.7,0-85.3,0-128,0C0,83.7,0,44.3,0,5C1.3,5,2.6,5,4,5z"/>
	<path class="st0" d="M80.4,5C68.6,8.1,57,11.6,45.1,14.1c-3.2,0.7-7.1-1.2-10.6-2.1C26,9.7,17.5,7.3,8.9,5C32.7,5,56.6,5,80.4,5z"
		/>
	<path class="st0" d="M128,18.9c-2.5-1.6-4.8-3.9-7.6-4.7C109.1,10.9,97.7,8,86.3,5c13.9,0,27.8,0,41.7,0C128,9.6,128,14.3,128,18.9
		z"/>
	<path class="st0" d="M122.7,116.8c-13.3-3.4-25.7-6.6-38.4-9.8c0-21.1,0-41.9,0.1-62.7c0-1.4,1.5-2.8,1.7-3.2
		c-0.7-3-1.7-5.4-1.8-7.9c-0.2-7.4-0.1-14.8-0.1-22.9c3,0.6,5.7,1.1,8.3,1.7c8.2,2.1,16.2,4.6,24.5,6.2c4.8,0.9,5.9,3.1,5.7,7.6
		c-0.3,10.2-0.1,20.5-0.1,30.7c0,17.9,0,35.9,0,53.8C122.7,112.4,122.7,114.2,122.7,116.8z M107.5,55.7c-0.4,0.4-0.7,0.7-1.1,1.1
		c1.6,4.8,5,7.6,9.1,6.4C112.7,60.5,110.1,58.1,107.5,55.7z M101.1,51.4c-0.3-5.8-4.5-8.9-8-7C95.9,46.8,98.5,49.1,101.1,51.4z"/>
	<path class="st0" d="M78.6,11.2c2,11.6,0.9,26.5-1.4,28.8c0.8,3,1.9,5.4,1.9,7.8c0.1,19.6,0.1,39.3,0,58.9c0,0.3-0.1,0.6-0.3,1.4
		c-11.1,2.8-22.4,5.7-34.2,8.7c0-10.4,0-20.3,0-30.1c0-20.8,0.1-41.6-0.1-62.4c0-3.4,0.9-4.8,4.4-5.6C58.9,16.5,68.7,13.8,78.6,11.2
		z M70,45c-0.4-0.4-0.8-0.8-1.2-1.2c-4.9,1.6-7.5,4.3-7.3,9C64.8,49.8,67.4,47.4,70,45z M48.7,64.6c5.4-0.4,8.4-4.9,6.4-8.3
		C52.9,59.1,50.8,61.8,48.7,64.6z"/>
	<path class="st0" d="M6.3,81.5c1.6,0.2,3,0.4,4.4,0.6c0.1-0.8,0.4-1.6,0.2-1.7c-5.6-3.9-4.6-9.7-4.6-15.2c0-16.3,0-32.7,0-49
		c0-1.8,0-3.5,0-6c11,2.8,21.2,5.3,31.3,8.1c0.9,0.2,1.9,2.1,1.9,3.3c0.1,16.5,0.2,33-0.1,49.5c0,2.1-2.3,4.2-3.7,6.7
		c1.2,0.2,2.4,0.4,3.7,0.7c0,12.1,0,24.2,0,37.1c-10.7-2.7-21-5.3-31.3-8.2c-0.8-0.2-1.8-1.9-1.8-2.9C6.3,96.9,6.3,89.3,6.3,81.5z
		 M29.1,81.9c-0.2-0.9-0.4-1.8-0.6-2.7c-3.4,0.8-6.8,1.6-10.2,2.3c0.2,0.8,0.4,1.6,0.6,2.4C22.3,83.3,25.7,82.6,29.1,81.9z"/>
	<path class="st1" d="M107.5,55.7c2.6,2.4,5.1,4.8,8,7.5c-4,1.2-7.5-1.5-9.1-6.4C106.8,56.4,107.2,56,107.5,55.7z"/>
	<path class="st1" d="M101.1,51.4c-2.6-2.3-5.2-4.6-8-7C96.7,42.5,100.8,45.7,101.1,51.4z"/>
	<path class="st1" d="M70,45c-2.6,2.4-5.2,4.8-8.5,7.7c-0.2-4.6,2.4-7.3,7.3-9C69.3,44.2,69.7,44.6,70,45z"/>
	<path class="st1" d="M48.7,64.6c2.1-2.7,4.2-5.4,6.4-8.3C57.1,59.6,54.1,64.1,48.7,64.6z"/>
	<path class="st1" d="M29.1,81.9c-3.4,0.7-6.9,1.3-10.3,2c-0.2-0.8-0.4-1.6-0.6-2.4c3.4-0.8,6.8-1.6,10.2-2.3
		C28.7,80.1,28.9,81,29.1,81.9z"/>
</g>
</svg>
