<?xml version="1.0" encoding="utf-8"?>
<!-- Generator: Adobe Illustrator 25.2.3, SVG Export Plug-In . SVG Version: 6.00 Build 0)  -->
<svg version="1.1" id="Layer_1" xmlns="http://www.w3.org/2000/svg" xmlns:xlink="http://www.w3.org/1999/xlink" x="0px" y="0px"
	 viewBox="0 0 128 128" style="enable-background:new 0 0 128 128;" xml:space="preserve">
<style type="text/css">
	.st0{fill:none;}
	.st1{fill:#666666;}
	.st2{fill:#012169;}
</style>
<g>
	<path class="st2" d="M128.5,19.5c0,33.1,0,66.1,0,99.2c-2,3.4-4.6,4.4-8.7,3.3c-10.8-3.1-21.7-5.7-32.6-8.3c-1.8-0.4-3.9-0.5-5.7,0
		c-11.1,2.7-22.1,5.6-33.1,8.4c-1.8,0.4-3.9,0.6-5.7,0.2c-11.4-2.8-22.7-6-34.1-8.7c-5.2-1.2-6.9-3.8-6.9-9
		c0.2-30.1,0-60.2,0.2-90.2c0-2.9,1.7-5.7,2.7-8.6c1.7,0,3.3,0,5,0c8.5,2.3,17.1,4.7,25.6,7c3.5,0.9,7.3,2.8,10.6,2.1
		c11.9-2.6,23.5-6,35.3-9.1c2,0,4,0,6,0c11.4,3,22.8,5.9,34.1,9.2C123.6,15.6,125.9,17.9,128.5,19.5z M123.1,117.4
		c0-2.7,0-4.5,0-6.3c0-17.9,0-35.9,0-53.8c0-10.2-0.2-20.5,0.1-30.7c0.2-4.5-0.9-6.7-5.7-7.6c-8.2-1.6-16.3-4.2-24.5-6.2
		c-2.6-0.7-5.3-1.1-8.3-1.7c0,8-0.1,15.4,0.1,22.9c0.1,2.4,1,4.8,1.8,7.9c-0.2,0.4-1.7,1.8-1.7,3.2c-0.1,20.8-0.1,41.6-0.1,62.7
		C97.4,110.9,109.8,114.1,123.1,117.4z M79.1,11.8c-9.9,2.5-19.7,5.3-29.7,7.5c-3.4,0.8-4.4,2.1-4.4,5.6c0.2,20.8,0.1,41.6,0.1,62.4
		c0,9.9,0,19.8,0,30.1c11.8-3,23.1-5.9,34.2-8.7c0.2-0.7,0.3-1.1,0.3-1.4c0-19.6,0.1-39.3,0-58.9c0-2.4-1.1-4.8-1.9-7.8
		C80,38.3,81.1,23.5,79.1,11.8z M6.8,82.1c0,7.8-0.1,15.4,0.1,23c0,1,1,2.7,1.8,2.9c10.3,2.8,20.6,5.4,31.3,8.2c0-12.9,0-25,0-37.1
		c-1.3-0.2-2.5-0.4-3.7-0.7c1.4-2.5,3.7-4.6,3.7-6.7c0.3-16.5,0.2-33,0.1-49.5c0-1.1-1-3-1.9-3.3C27.9,16,17.7,13.5,6.8,10.7
		c0,2.5,0,4.3,0,6c0,16.3,0,32.7,0,49c0,5.5-1.1,11.4,4.6,15.2c0.2,0.1-0.1,0.9-0.2,1.7C9.7,82.5,8.4,82.3,6.8,82.1z"/>
	<path class="st0" d="M4.4,5.6c-0.9,2.9-2.6,5.7-2.7,8.6c-0.2,30.1,0,60.1-0.2,90.2c0,5.1,1.7,7.8,6.9,9c11.4,2.6,22.7,5.9,34.1,8.7
		c1.8,0.4,3.9,0.3,5.7-0.2c11.1-2.7,22.1-5.7,33.1-8.4c1.8-0.4,3.9-0.4,5.7,0c10.9,2.6,21.8,5.3,32.6,8.3c4.1,1.2,6.7,0.1,8.7-3.3
		c0,1.7,0,3.3,0,5c-42.7,0-85.3,0-128,0c0-39.3,0-78.7,0-118C1.8,5.6,3.1,5.6,4.4,5.6z"/>
	<path class="st0" d="M80.8,5.6c-11.7,3.1-23.4,6.6-35.3,9.1c-3.2,0.7-7.1-1.2-10.6-2.1c-8.6-2.3-17.1-4.7-25.6-7
		C33.2,5.6,57,5.6,80.8,5.6z"/>
	<path class="st0" d="M128.5,19.5c-2.5-1.6-4.8-3.9-7.6-4.7c-11.3-3.3-22.7-6.2-34.1-9.2c13.9,0,27.8,0,41.7,0
		C128.5,10.2,128.5,14.9,128.5,19.5z"/>
	<path class="st0" d="M123.1,117.4c-13.3-3.4-25.7-6.6-38.4-9.8c0-21.1,0-41.9,0.1-62.7c0-1.4,1.5-2.8,1.7-3.2
		c-0.7-3-1.7-5.4-1.8-7.9C84.6,26.5,84.8,19,84.8,11c3,0.6,5.7,1.1,8.3,1.7c8.2,2.1,16.2,4.6,24.5,6.2c4.8,0.9,5.9,3.1,5.7,7.6
		c-0.3,10.2-0.1,20.5-0.1,30.7c0,17.9,0,35.9,0,53.8C123.1,113,123.1,114.8,123.1,117.4z M108,56.3c-0.4,0.4-0.7,0.7-1.1,1.1
		c1.6,4.8,5,7.6,9.1,6.4C113.1,61.1,110.6,58.7,108,56.3z M101.6,52c-0.3-5.8-4.5-8.9-8-7C96.3,47.4,98.9,49.7,101.6,52z"/>
	<path class="st0" d="M79.1,11.8c2,11.6,0.9,26.5-1.4,28.8c0.8,3,1.9,5.4,1.9,7.8c0.1,19.6,0.1,39.3,0,58.9c0,0.3-0.1,0.6-0.3,1.4
		c-11.1,2.8-22.4,5.7-34.2,8.7c0-10.4,0-20.3,0-30.1c0-20.8,0.1-41.6-0.1-62.4c0-3.4,0.9-4.8,4.4-5.6C59.4,17.1,69.2,14.4,79.1,11.8
		z M70.5,45.7c-0.4-0.4-0.8-0.8-1.2-1.2c-4.9,1.6-7.5,4.3-7.3,9C65.3,50.4,67.9,48,70.5,45.7z M49.1,65.2c5.4-0.4,8.4-4.9,6.4-8.3
		C53.3,59.8,51.2,62.5,49.1,65.2z"/>
	<path class="st0" d="M6.8,82.1c1.6,0.2,3,0.4,4.4,0.6c0.1-0.8,0.4-1.6,0.2-1.7c-5.6-3.9-4.6-9.7-4.6-15.2c0-16.3,0-32.7,0-49
		c0-1.8,0-3.5,0-6c11,2.8,21.2,5.3,31.3,8.1c0.9,0.2,1.9,2.1,1.9,3.3c0.1,16.5,0.2,33-0.1,49.5c0,2.1-2.3,4.2-3.7,6.7
		c1.2,0.2,2.4,0.4,3.7,0.7c0,12.1,0,24.2,0,37.1c-10.7-2.7-21-5.3-31.3-8.2c-0.8-0.2-1.8-1.9-1.8-2.9C6.7,97.5,6.8,89.9,6.8,82.1z
		 M29.6,82.5c-0.2-0.9-0.4-1.8-0.6-2.7c-3.4,0.8-6.8,1.6-10.2,2.3c0.2,0.8,0.4,1.6,0.6,2.4C22.7,83.9,26.2,83.2,29.6,82.5z"/>
	<path class="st2" d="M108,56.3c2.6,2.4,5.1,4.8,8,7.5c-4,1.2-7.5-1.5-9.1-6.4C107.3,57,107.6,56.7,108,56.3z"/>
	<path class="st2" d="M101.6,52c-2.6-2.3-5.2-4.6-8-7C97.1,43.1,101.2,46.3,101.6,52z"/>
	<path class="st2" d="M70.5,45.7c-2.6,2.4-5.2,4.8-8.5,7.7c-0.2-4.6,2.4-7.3,7.3-9C69.7,44.8,70.1,45.3,70.5,45.7z"/>
	<path class="st2" d="M49.1,65.2c2.1-2.7,4.2-5.4,6.4-8.3C57.5,60.2,54.6,64.8,49.1,65.2z"/>
	<path class="st2" d="M29.6,82.5c-3.4,0.7-6.9,1.3-10.3,2c-0.2-0.8-0.4-1.6-0.6-2.4c3.4-0.8,6.8-1.6,10.2-2.3
		C29.2,80.7,29.4,81.6,29.6,82.5z"/>
</g>
</svg>
